<svg width="30" height="40" viewBox="0 0 30 40" fill="none" xmlns="http://www.w3.org/2000/svg">
<path d="M15.0004 8.14893C17.2574 8.14893 19.0872 6.32473 19.0872 4.07447C19.0872 1.8242 17.2574 0 15.0004 0C12.7433 0 10.9136 1.8242 10.9136 4.07447C10.9136 6.32473 12.7433 8.14893 15.0004 8.14893Z" fill="#EA4934"/>
<path d="M17.4666 28.7339V37.542C17.4666 38.8983 16.3611 40.0005 15.0006 40.0005C13.6402 40.0005 12.5347 38.8983 12.5347 37.542V28.7339C12.5347 27.3776 13.6402 26.2754 15.0006 26.2754C15.6809 26.2754 16.2984 26.5513 16.7428 26.9943C17.1899 27.4401 17.4666 28.0558 17.4666 28.7339Z" fill="#EA4934"/>
<path d="M15.0007 9.64746C7.24702 9.64746 0.961426 15.9141 0.961426 23.6444C0.961426 29.4367 4.49204 34.4068 9.52351 36.5338V29.7466C7.79092 28.2394 6.70038 26.0228 6.70038 23.5574C6.70038 19.01 10.415 15.3215 14.998 15.3215C19.581 15.3215 23.2929 19.0114 23.2929 23.5574C23.2929 26.0214 22.2037 28.2326 20.4766 29.7425V36.5351C25.5081 34.4082 29.0387 29.4367 29.0387 23.6458C29.0387 15.9154 22.7531 9.64882 14.9994 9.64882L15.0007 9.64746Z" fill="#006CB5"/>
</svg>
