<svg width="216" height="200" viewBox="0 0 216 200" fill="none" xmlns="http://www.w3.org/2000/svg">
<g clip-path="url(#clip0_387_39409)">
<rect width="216" height="200" transform="translate(0 0.000488281)" fill="#e7e8e9"/>
<path d="M56.7229 226.87L51.5411 204.675L46.516 182.446L41.565 160.197L21.7456 71.2112L21.7787 71.1598L21.8309 71.1927L42.2491 160.043L47.3602 182.256L52.3954 204.483L57.2714 226.748L59.7056 237.88L62.0715 249.027L62.0386 249.079L61.9864 249.046L59.3172 237.966L56.7229 226.87ZM98.7523 318.962L75.5502 321.245L64.6807 210.69C64.3951 210.352 64.1737 209.956 64.0687 209.497C63.9089 208.793 64.0392 208.094 64.3702 207.511L62.9698 193.286L61.3776 193.648C60.9074 193.752 60.4391 193.459 60.3357 192.993C60.228 192.523 60.5245 192.054 60.9913 191.951L62.7984 191.542L62.4149 187.646L60.1352 188.163C59.6651 188.267 59.1992 187.97 59.0924 187.504C58.9856 187.038 59.2822 186.569 59.7523 186.465L62.2425 185.898L61.8624 182.001L58.8919 182.674C58.4261 182.781 57.9568 182.485 57.8534 182.018C57.7466 181.552 58.0398 181.084 58.509 180.976L61.691 180.257L61.3075 176.361L59.5484 176.76C58.037 177.1 56.5216 176.145 56.1825 174.637C55.84 173.13 56.7947 171.615 58.3052 171.271L60.7516 170.717L49.8193 59.5231L14.7524 67.4586L15.9508 72.7661L17.1358 77.9971L17.4049 79.19L17.8106 80.987L20.1751 91.4277L21.0652 95.3694L32.0112 143.736L33.2355 149.154L35.0351 157.096L36.2594 162.514L41.7428 186.75L42.3401 189.383L44.677 199.708L45.9013 205.125L50.0699 223.538L51.1709 228.415L59.7529 266.33L60.854 271.207L64.0551 285.349L72.3743 322.121L73.3554 326.457L74.3357 330.789L75.3379 335.216L98.7523 318.962Z" fill="#DA3028"/>
<path d="M210.588 153.076C211.062 153.028 211.492 153.379 211.539 153.853C211.585 154.332 211.234 154.762 210.759 154.806L78.1795 167.841C77.705 167.889 77.2745 167.535 77.2302 167.06C77.1815 166.582 77.5329 166.156 78.0108 166.107L210.588 153.076ZM214.083 188.643C214.561 188.595 214.992 188.948 215.036 189.424C215.08 189.899 214.733 190.328 214.255 190.377L81.675 203.408C81.2006 203.456 80.7734 203.101 80.7257 202.627C80.678 202.153 81.0319 201.722 81.5063 201.674L214.083 188.643ZM214.805 195.971L82.2258 209.007C81.748 209.055 81.3218 208.704 81.2732 208.226C81.2288 207.751 81.5793 207.321 82.0572 207.273L214.633 194.238C215.112 194.193 215.538 194.544 215.587 195.022C215.631 195.498 215.284 195.926 214.805 195.971ZM114.058 227.659C114.211 229.198 113.077 230.582 111.536 230.731L86.5539 233.188C85.0174 233.339 83.6309 232.206 83.4815 230.665C83.3321 229.124 84.4666 227.741 86.0074 227.592L110.986 225.136C112.526 224.983 113.909 226.118 114.058 227.659ZM76.8786 314.469L76.8371 314.516L76.7899 314.475L75.3611 298.258L74.0042 282.041L71.2986 249.597L68.7526 217.143L66.2853 184.686L56.391 54.8443L56.4295 54.7997L56.4758 54.8378L66.9811 184.629L69.6158 217.078L72.1685 249.53L74.5624 281.996L75.7581 298.232L76.8786 314.469ZM140.955 44.2835C134.892 45.199 128.808 45.9305 122.721 46.679C116.635 47.4048 110.534 47.9761 104.438 48.5961L67.8482 52.3042L67.8014 52.264L67.8393 52.217L104.36 47.9016C110.448 47.1855 116.527 46.4228 122.629 45.809C128.729 45.22 134.826 44.6155 140.947 44.1964L140.993 44.2365L140.955 44.2835ZM107.489 189.565C109.027 189.417 110.413 190.55 110.563 192.091C110.711 193.629 109.578 195.015 108.037 195.165L83.0584 197.62C81.5185 197.773 80.1344 196.635 79.986 195.098C79.8332 193.558 80.9676 192.175 82.5075 192.022L107.489 189.565ZM79.2811 179.038C78.8024 179.083 78.3762 178.732 78.3285 178.257C78.2798 177.779 78.6346 177.352 79.109 177.305L211.688 164.269C212.164 164.225 212.593 164.575 212.642 165.053C212.686 165.529 212.335 165.955 211.857 166.003L79.2811 179.038ZM211.138 158.671C211.612 158.623 212.042 158.977 212.087 159.452C212.135 159.93 211.784 160.356 211.306 160.405L78.7303 173.44C78.2558 173.487 77.8254 173.133 77.781 172.658C77.7324 172.18 78.0837 171.754 78.5582 171.706L211.138 158.671ZM103.99 153.999C105.53 153.846 106.914 154.984 107.066 156.521C107.216 158.061 106.081 159.445 104.541 159.597L79.5628 162.053C78.0229 162.206 76.6389 161.068 76.4861 159.528C76.3367 157.987 77.4721 156.607 79.012 156.455L103.99 153.999ZM189.693 77.6147C188.388 74.4705 187.344 71.2855 186.539 68.081L188.273 85.7299C189.58 99.0262 184.463 112.152 174.507 121.061L158.549 135.334L140.115 124.443C128.613 117.643 121.038 105.767 119.731 92.4702L117.213 66.8702L150.409 52.5422L185.024 59.9746C183.941 51.3254 184.547 42.678 186.682 34.467L140.477 39.0097L123.664 40.663L119.56 41.0661L112.471 41.7631L108.852 42.1188L78.6201 45.0914L51.4438 47.7632L48.6904 48.0343L48.7363 48.4887L49.2474 53.7097L49.8199 59.5235L60.7522 170.717L61.308 176.361L61.6916 180.257L61.863 182.001L62.2431 185.899L62.4154 187.646L62.7989 191.543L62.9704 193.287L64.3707 207.511L64.6813 210.691L75.5508 321.245L114.866 300.663L100.111 302.115C99.6744 302.156 99.2783 301.837 99.2362 301.397C99.1951 300.96 99.5148 300.564 99.9547 300.522L118.564 298.69C146.09 283.963 169.86 263.918 188.747 240.1L86.2732 250.176C85.7978 250.22 85.3682 249.87 85.3239 249.394C85.2752 248.916 85.6266 248.49 86.1045 248.442L190.206 238.204C191.287 236.81 192.359 235.411 193.408 233.99L85.7257 244.577C85.2469 244.622 84.8207 244.27 84.7721 243.793C84.7244 243.318 85.0749 242.889 85.5536 242.843L194.772 232.105C195.775 230.717 196.766 229.322 197.737 227.91L85.174 238.975C84.6961 239.023 84.2699 238.672 84.2213 238.194C84.1735 237.72 84.5274 237.289 85.0028 237.245L199.011 226.035C200.047 224.501 201.059 222.956 202.056 221.397L117.527 229.707C117.053 229.754 116.625 229.4 116.578 228.925C116.529 228.447 116.884 228.02 117.358 227.973L203.245 219.53C206.845 213.772 210.188 207.849 213.261 201.778L82.7767 214.605C82.2989 214.654 81.8726 214.302 81.824 213.825C81.7797 213.349 82.1301 212.92 82.6089 212.874L214.175 199.937C216.817 194.591 219.253 189.135 221.467 183.575L114.031 194.139C113.556 194.184 113.126 193.833 113.081 193.355C113.034 192.88 113.385 192.454 113.863 192.405L222.185 181.755C226.597 170.406 230.093 158.641 232.632 146.566L110.535 158.569C110.057 158.617 109.631 158.266 109.582 157.788C109.538 157.313 109.888 156.883 110.367 156.838L233.015 144.778C233.968 140.062 234.782 135.3 235.432 130.495L237.157 117.805C236.984 117.764 236.814 117.723 236.641 117.683C216.226 112.762 198.356 98.4972 189.693 77.6147Z" fill="#F06456"/>
<path d="M208.469 272.694C207.316 260.981 215.912 250.51 227.629 249.359C232.172 248.91 236.525 249.946 240.224 252.048L243.447 245.582C244.021 244.436 245.409 243.974 246.555 244.544C247.7 245.114 248.166 246.505 247.593 247.651L244.024 254.805C247.825 258.244 250.425 263.029 250.965 268.519C252.115 280.233 243.522 290.703 231.805 291.854C220.09 293.004 209.62 284.412 208.469 272.694ZM235.431 130.495C234.78 135.3 233.967 140.062 233.014 144.778L242.942 143.803C243.42 143.755 243.846 144.106 243.895 144.584C243.939 145.059 243.589 145.489 243.113 145.533L232.631 146.566C230.091 158.641 226.596 170.406 222.184 181.755L246.438 179.371C246.916 179.326 247.342 179.677 247.39 180.151C247.439 180.629 247.084 181.056 246.61 181.104L221.466 183.575C219.252 189.135 216.816 194.591 214.174 199.937L215.184 199.84C215.662 199.791 216.088 200.143 216.136 200.62C216.181 201.096 215.83 201.525 215.355 201.57L213.259 201.777C210.187 207.849 206.844 213.772 203.244 219.53L249.937 214.941C250.412 214.893 250.841 215.243 250.886 215.719C250.934 216.196 250.584 216.626 250.105 216.671L202.055 221.397C201.058 222.956 200.046 224.501 199.01 226.035L217.578 224.21C218.055 224.162 218.486 224.516 218.534 224.99C218.579 225.469 218.228 225.895 217.75 225.944L197.736 227.91C196.765 229.322 195.774 230.717 194.771 232.104L218.128 229.809C218.607 229.763 219.036 230.111 219.081 230.589C219.129 231.064 218.778 231.493 218.301 231.542L193.406 233.99C192.358 235.411 191.286 236.81 190.205 238.204L218.679 235.407C219.157 235.358 219.584 235.713 219.632 236.188C219.681 236.665 219.326 237.093 218.851 237.14L188.746 240.1C169.859 263.918 146.089 283.962 118.563 298.69L195.046 291.172C195.486 291.13 195.876 291.455 195.92 291.89C195.963 292.33 195.642 292.723 195.202 292.765L114.865 300.663L75.5496 321.245L98.7517 318.962L184.37 310.545L276.157 301.521L274.279 282.426L272.268 261.966L269.813 236.987L266.837 206.702L262.667 164.292L258.436 121.266L258.249 119.342C258.171 119.349 258.093 119.352 258.015 119.358C257.375 119.407 256.734 119.452 256.096 119.486C255.694 119.507 255.292 119.528 254.888 119.543C254.23 119.564 253.568 119.572 252.912 119.574C252.548 119.578 252.185 119.585 251.82 119.582C250.839 119.57 249.861 119.543 248.886 119.49C248.611 119.474 248.341 119.449 248.069 119.432C247.338 119.382 246.608 119.325 245.881 119.253C245.47 119.215 245.063 119.162 244.654 119.116C244.064 119.043 243.474 118.97 242.885 118.886C242.453 118.825 242.023 118.756 241.594 118.687C241.016 118.593 240.439 118.488 239.865 118.378C239.45 118.298 239.033 118.222 238.616 118.135C238.126 118.032 237.641 117.916 237.156 117.805L235.431 130.495Z" fill="#DED7E7"/>
<path d="M184.859 86.5575C186.034 98.514 181.439 110.313 172.483 118.322L158.135 131.153L141.565 121.362C131.222 115.251 124.412 104.57 123.237 92.6165L120.976 69.6034L150.816 56.7207L182.594 63.5464L184.859 86.5575ZM150.407 52.542L117.212 66.87L119.73 92.47C121.037 105.766 128.611 117.643 140.113 124.443L158.548 135.334L174.505 121.06C184.462 112.152 189.578 99.026 188.271 85.7297L186.538 68.0808C185.86 65.3877 185.362 62.6814 185.023 59.9744L150.407 52.542Z" fill="#055E9B"/>
<path d="M120.977 69.6037L150.817 56.721L182.595 63.5467L184.86 86.5578C186.035 98.5143 181.44 110.313 172.484 118.322L158.136 131.153L141.566 121.362C131.223 115.251 124.413 104.57 123.238 92.6168L120.977 69.6037Z" fill="#0898D9"/>
<path d="M150.156 106.749L143.455 100.961C142.177 99.8563 140.244 99.9954 139.14 101.277C138.035 102.554 138.177 104.487 139.455 105.592L149.134 113.952C149.773 114.506 150.608 114.766 151.435 114.686L151.737 114.641C152.664 114.454 153.452 113.849 153.872 113.008L173.913 72.8481C174.669 71.3335 174.054 69.4969 172.542 68.7425C171.03 67.9881 169.194 68.6001 168.438 70.1134L150.156 106.749Z" fill="white"/>
<path d="M76.4852 159.528C76.6379 161.068 78.022 162.206 79.5619 162.053L104.54 159.597C106.08 159.444 107.215 158.061 107.065 156.52C106.913 154.984 105.529 153.846 103.99 153.999L79.0111 156.455C77.4711 156.607 76.3358 157.987 76.4852 159.528Z" fill="white"/>
<path d="M243.114 145.533C243.589 145.489 243.939 145.059 243.895 144.584C243.846 144.106 243.42 143.755 242.942 143.803L233.015 144.778L110.366 156.838C109.888 156.883 109.537 157.313 109.582 157.788C109.63 158.266 110.056 158.617 110.534 158.569L232.631 146.566L243.114 145.533Z" fill="white"/>
<path d="M78.0095 166.107C77.5317 166.156 77.1803 166.582 77.2289 167.06C77.2733 167.535 77.7038 167.889 78.1782 167.841L210.758 154.806C211.233 154.762 211.583 154.332 211.538 153.853C211.49 153.379 211.061 153.028 210.586 153.076L78.0095 166.107Z" fill="white"/>
<path d="M77.7799 172.658C77.8243 173.134 78.2548 173.488 78.7292 173.44L211.305 160.405C211.783 160.357 212.134 159.931 212.086 159.453C212.041 158.977 211.611 158.624 211.136 158.671L78.5571 171.707C78.0827 171.754 77.7313 172.18 77.7799 172.658Z" fill="white"/>
<path d="M211.857 166.003C212.334 165.954 212.686 165.528 212.641 165.053C212.593 164.575 212.163 164.225 211.688 164.269L79.1085 177.304C78.634 177.352 78.2793 177.779 78.3279 178.257C78.3756 178.731 78.8018 179.083 79.2806 179.037L211.857 166.003Z" fill="white"/>
<path d="M82.5064 192.022C80.9665 192.175 79.8321 193.558 79.9848 195.098C80.1333 196.635 81.5173 197.773 83.0573 197.62L108.036 195.165C109.577 195.015 110.71 193.629 110.562 192.091C110.412 190.55 109.026 189.417 107.488 189.565L82.5064 192.022Z" fill="white"/>
<path d="M246.611 181.104C247.086 181.056 247.441 180.629 247.392 180.151C247.344 179.677 246.918 179.325 246.439 179.371L222.185 181.755L113.863 192.405C113.385 192.454 113.034 192.88 113.082 193.354C113.127 193.833 113.557 194.183 114.032 194.139L221.467 183.575L246.611 181.104Z" fill="white"/>
<path d="M81.5061 201.674C81.0316 201.722 80.6778 202.152 80.7255 202.627C80.7732 203.101 81.2003 203.456 81.6748 203.408L214.255 190.376C214.733 190.328 215.08 189.899 215.036 189.424C214.991 188.948 214.561 188.595 214.083 188.643L81.5061 201.674Z" fill="white"/>
<path d="M214.633 194.238L82.057 207.272C81.5792 207.321 81.2287 207.751 81.273 208.226C81.3216 208.704 81.7479 209.055 82.2257 209.007L214.805 195.971C215.284 195.926 215.631 195.497 215.587 195.022C215.538 194.544 215.112 194.193 214.633 194.238Z" fill="white"/>
<path d="M215.356 201.569C215.831 201.525 216.182 201.095 216.137 200.62C216.089 200.142 215.662 199.791 215.185 199.839L214.175 199.937L82.6086 212.874C82.1299 212.919 81.7794 213.349 81.8238 213.824C81.8724 214.302 82.2986 214.653 82.7765 214.605L213.26 201.777L215.356 201.569Z" fill="white"/>
<path d="M250.106 216.671C250.585 216.626 250.936 216.196 250.887 215.719C250.843 215.243 250.413 214.893 249.939 214.941L203.245 219.53L117.358 227.972C116.884 228.02 116.529 228.447 116.578 228.925C116.625 229.4 117.053 229.754 117.527 229.707L202.056 221.397L250.106 216.671Z" fill="#B6A9BF"/>
<path d="M75.7574 298.231L74.5617 281.996L72.1678 249.53L69.6151 217.077L66.9804 184.629L56.4751 54.8374L56.4288 54.7993L56.3902 54.8439L66.2845 184.685L68.7519 217.143L71.2978 249.597L74.0035 282.041L75.3604 298.258L76.7892 314.474L76.8364 314.516L76.8779 314.468L75.7574 298.231Z" fill="white"/>
<path d="M213.366 31.8433C205.259 32.6422 239.266 29.2958 201.856 32.9754C201.81 33.099 201.767 33.2227 201.725 33.3457C201.352 34.3813 201.012 35.4278 200.703 36.4854C200.673 36.5857 200.637 36.6812 200.606 36.7818C200.586 36.8537 200.569 36.9267 200.549 36.9986C200.526 37.0881 200.507 37.1818 200.481 37.2725C200.195 38.3174 199.936 39.371 199.711 40.433C199.675 40.6094 199.632 40.7859 199.597 40.9632C199.372 42.0904 199.186 43.229 199.034 44.371C199.029 44.4049 199.019 44.4384 199.018 44.4714C198.988 44.697 198.958 44.9233 198.932 45.1491C198.931 45.1594 198.93 45.1697 198.929 45.1797C198.787 46.3571 198.677 47.5391 198.613 48.7278C198.605 48.8843 198.603 49.0413 198.598 49.1971C198.547 50.3004 198.54 51.4059 198.56 52.5153C198.558 52.5891 198.555 52.6608 198.557 52.7344C198.559 52.8504 198.554 52.9664 198.56 53.0822C198.56 53.1487 198.57 53.2151 198.574 53.2811C198.608 54.4316 198.685 55.5834 198.796 56.7366C198.818 56.9677 198.84 57.1986 198.866 57.4295C198.873 57.4815 198.883 57.5336 198.89 57.5856C199.009 58.6645 199.165 59.7428 199.352 60.8204C199.366 60.8866 199.37 60.9539 199.384 61.0201C199.419 61.2293 199.463 61.4364 199.504 61.6437C199.721 62.777 199.974 63.9086 200.266 65.0371C200.296 65.1516 200.313 65.2697 200.345 65.3875C200.397 65.5829 200.466 65.7737 200.522 65.9681C200.73 66.7172 200.956 67.4652 201.198 68.2087C201.301 68.5241 201.4 68.8404 201.51 69.1573C201.865 70.1848 202.245 71.2126 202.666 72.233C202.692 72.2876 202.715 72.3464 202.741 72.4043C202.746 72.4211 202.754 72.4371 202.762 72.453C202.781 72.4983 202.797 72.5446 202.816 72.5899C202.823 72.6025 202.83 72.615 202.834 72.6285C202.856 72.684 202.881 72.7385 202.904 72.7973C202.909 72.7998 202.909 72.7998 202.909 72.8031C202.938 72.8678 202.962 72.9299 202.989 72.9912L202.99 72.9946C203.016 73.0525 203.042 73.1104 203.069 73.1683C203.071 73.1784 203.073 73.1852 203.079 73.1944C203.101 73.2498 203.127 73.3044 203.152 73.3589C203.153 73.3623 203.155 73.369 203.156 73.3724C203.211 73.4983 203.266 73.6208 203.321 73.7467C203.352 73.8071 203.378 73.865 203.405 73.9263C203.406 73.9297 203.407 73.933 203.408 73.9364C203.845 74.8948 204.307 75.8359 204.793 76.7596C208.487 83.7714 213.575 89.6664 219.55 94.266C225.802 97.3008 232.622 99.1294 239.629 99.5908L249.299 28.3108L224.306 30.7681L213.366 31.8433Z" fill="#006CB5"/>
<path d="M189.727 52.9128C189.124 44.5488 190.399 36.0655 193.534 28.2734C196.743 20.5043 201.74 13.5325 207.738 7.63269C213.747 1.74289 220.66 -3.28991 228.229 -7.01808L228.254 -7.07518L228.198 -7.09621C220.559 -3.46498 213.562 1.48283 207.436 7.32471C201.343 13.1963 196.228 20.172 192.896 28.0083C191.259 31.9342 190.091 36.048 189.382 40.2449L188.956 43.41L188.771 46.5979C188.676 47.6587 188.723 48.7225 188.745 49.7868L188.779 51.3833C188.784 51.914 188.8 52.4456 188.866 52.9741C189.608 61.4554 192.005 69.7263 195.608 77.3688L195.665 77.3898L195.69 77.3361C192.541 69.5033 190.304 61.2913 189.727 52.9128Z" fill="white"/>
</g>
<defs>
<clipPath id="clip0_387_39409">
<rect width="216" height="200" fill="white" transform="translate(0 0.000488281)"/>
</clipPath>
</defs>
</svg>
